<?xml version="1.0" encoding="UTF-8" standalone="no"?>
<!DOCTYPE svg PUBLIC "-//W3C//DTD SVG 1.1//EN" "http://www.w3.org/Graphics/SVG/1.1/DTD/svg11.dtd">
<svg width="4271" height="1096" viewBox="0 0 4271 1096" version="1.1" xmlns="http://www.w3.org/2000/svg" xmlns:xlink="http://www.w3.org/1999/xlink" xml:space="preserve" xmlns:serif="http://www.serif.com/" style="fill-rule:evenodd;clip-rule:evenodd;stroke-linejoin:round;stroke-miterlimit:2;">
    <g id="Página-1" serif:id="Página 1" transform="matrix(4.166667,0,0,4.166667,0,0)">
        <rect x="0" y="0" width="1025" height="263" style="fill:none;"/>
        <g id="Capa-1" serif:id="Capa 1">
            <g transform="matrix(1.40639,0,0,1.40639,121.720924,150.892948)">
                <path d="M0,-79.036L0,-71.258C-10.105,-77.19 -20.011,-80.157 -29.718,-80.157C-40.062,-80.157 -48.715,-76.267 -55.676,-68.489C-62.639,-60.711 -66.12,-50.998 -66.12,-39.353C-66.12,-27.576 -62.619,-17.886 -55.617,-10.284C-48.615,-2.681 -39.684,1.12 -28.823,1.12C-19.752,1.12 -9.867,-2.021 0.835,-8.306L0.835,-0.923C-9.031,4.834 -18.877,7.712 -28.704,7.712C-41.395,7.712 -51.967,3.219 -60.42,-5.768C-68.875,-14.755 -73.102,-25.95 -73.102,-39.353C-73.102,-52.844 -68.785,-64.116 -60.152,-73.169C-51.52,-82.222 -41.235,-86.748 -29.3,-86.748C-19.912,-86.748 -10.145,-84.178 0,-79.036" style="fill:white;fill-rule:nonzero;"/>
            </g>
            <g transform="matrix(1.40639,0,0,1.40639,197.841081,38.161364)">
                <path d="M0,81.277C10.384,81.277 19.146,77.355 26.287,69.51C33.428,61.667 36.999,52.054 36.999,40.672C36.999,29.246 33.428,19.611 26.287,11.766C19.146,3.923 10.384,0 0,0C-10.423,0 -19.245,3.923 -26.465,11.766C-33.686,19.611 -37.296,29.246 -37.296,40.672C-37.296,52.054 -33.686,61.667 -26.465,69.51C-19.245,77.355 -10.423,81.277 0,81.277M-0.238,-6.592C12.094,-6.592 22.547,-2.01 31.121,7.152C39.693,16.315 43.98,27.488 43.98,40.672C43.98,53.812 39.693,64.963 31.121,74.125C22.547,83.288 12.094,87.869 -0.238,87.869C-12.531,87.869 -22.944,83.288 -31.478,74.125C-40.011,64.963 -44.278,53.812 -44.278,40.672C-44.278,27.488 -40.011,16.315 -31.478,7.152C-22.944,-2.01 -12.531,-6.592 -0.238,-6.592" style="fill:white;fill-rule:nonzero;"/>
            </g>
            <g transform="matrix(1.40639,0,0,1.40639,290.999373,151.726515)">
                <path d="M0,-80.222L0,0L23.512,0C34.292,0 43.273,-3.658 50.455,-10.975C57.636,-18.292 61.227,-27.993 61.227,-40.078C61.227,-51.899 57.685,-61.545 50.604,-69.016C43.522,-76.486 34.352,-80.222 23.094,-80.222L0,-80.222ZM-6.445,-86.155L22.736,-86.155C37.495,-86.155 48.764,-81.87 56.542,-73.301C64.319,-64.731 68.208,-53.657 68.208,-40.078C68.208,-26.763 64.359,-15.764 56.661,-7.086C48.963,1.593 38.032,5.933 23.87,5.933L-6.445,5.933L-6.445,-86.155Z" style="fill:white;fill-rule:nonzero;"/>
            </g>
            <g transform="matrix(1.40639,0,0,1.40639,715.030327,81.084247)">
                <path d="M0,20.237L26.913,20.237L12.83,-16.216L0,20.237ZM21.005,-35.925L57.824,56.162L40.817,56.162L32.164,33.75L-4.894,33.75L-12.95,56.162L-29.838,56.162L4.535,-35.925L21.005,-35.925Z" style="fill:white;fill-rule:nonzero;"/>
            </g>
            <g transform="matrix(1.40639,0,0,1.40639,847.213129,104.817079)">
                <path d="M0,-13.513C4.216,-13.513 7.528,-14.677 9.936,-17.007C12.342,-19.335 13.546,-22.521 13.546,-26.565C13.546,-30.784 12.353,-33.936 9.966,-36.024C7.578,-38.111 4.177,-39.155 -0.239,-39.155L-10.265,-39.155L-10.265,-13.513L0,-13.513ZM3.64,-52.8C11.477,-52.8 17.862,-50.405 22.796,-45.615C27.728,-40.825 30.195,-34.584 30.195,-26.894C30.195,-21.664 28.972,-17.105 26.525,-13.217C24.078,-9.327 20.447,-6.262 15.635,-4.021C18.3,-2.439 20.667,-0.285 22.735,2.439C24.804,5.164 27.37,9.756 30.434,16.216C35.525,27.379 39.305,35.069 41.772,39.287L23.81,39.287C22.576,37.266 20.905,34.036 18.797,29.597C14.182,19.798 10.801,13.195 8.652,9.789C6.504,6.384 4.436,3.966 2.446,2.538C0.457,1.111 -1.831,0.396 -4.416,0.396L-10.265,0.396L-10.265,39.287L-26.377,39.287L-26.377,-52.8L3.64,-52.8Z" style="fill:white;fill-rule:nonzero;"/>
            </g>
            <g transform="matrix(1.40639,0,0,1.40639,1009.524743,160.069783)">
                <path d="M0,-92.087L0,-78.178L-29.599,-78.178L-29.599,0L-45.711,0L-45.711,-78.178L-75.31,-78.178L-75.31,-92.087L0,-92.087Z" style="fill:white;fill-rule:nonzero;"/>
            </g>
        </g>
        <g transform="matrix(0.88727,0,0,0.786099,557.929779,35.202189)">
            <path d="M0,156.644C0.083,156.279 1.228,154.644 1.599,154.438C18.431,152.693 37.233,155.489 53.974,154.104C59.604,153.639 60.433,150.394 63.151,146.368C75.885,127.504 92.599,102.116 103.076,82.926C105.325,78.806 105.516,77.981 103.386,73.961C92.853,54.084 76.212,29.088 63.444,9.954C60.227,5.133 59.765,2.324 53.168,1.758C44.098,0.981 22.846,0.821 13.966,1.77C11.742,2.008 10.027,2.589 8.956,4.515C1.23,33.727 -5.571,63.268 -12.987,92.455C-19.071,116.402 -25.537,140.241 -31.724,164.22C-32.448,167.027 -32.859,175.864 -35.686,176.757L-117.467,176.512C-118.185,176.19 -123.61,168.259 -124.533,166.833C-125.377,165.528 -125.533,163.954 -126.375,162.643C-144.029,135.117 -161.817,107.286 -178.674,79.045C-179.135,77.362 -178.252,75.196 -177.383,73.67C-164.296,50.681 -147.27,26.451 -132.765,3.514C-127.688,-4.516 -123.419,-13.2 -117.421,-20.608L-45.542,-21.023C-45.525,-15.993 -45.562,-10.946 -45.584,-5.909C-45.596,-3.023 -44.198,-1.429 -46.345,1.787L-101.081,1.787C-101.292,1.787 -104.35,3.359 -104.721,3.778C-114.933,20.948 -125.405,38.017 -135.96,55.011C-139.507,60.722 -145.113,67.489 -148.148,73.214C-150.243,77.166 -150.195,78.696 -148.146,82.641C-145.798,87.162 -141.687,91.608 -139.102,95.801C-127.564,114.512 -116.168,133.319 -104.719,152.075L-101.506,153.707L-55.473,153.39C-51.924,150.07 -52.786,145.302 -51.736,141.382C-40.627,99.921 -29.967,58.229 -19.38,16.681C-16.686,6.106 -15.031,-6.552 -11.772,-16.776C-11.222,-18.504 -10.032,-20.948 -8.028,-21.446L72.711,-20.648C87.075,0.941 100.324,23.122 113.97,45.095C118.538,52.45 123.038,59.768 127.534,67.184C130.068,71.363 135.959,75.728 133.251,80.691L72.71,176.503C51.016,177.086 29.262,177.024 7.554,176.836C6.243,176.824 0,178.09 0,175.771C0,170.896 -0.925,160.717 0,156.644" style="fill:white;fill-rule:nonzero;"/>
        </g>
        <g transform="matrix(0.88727,0,0,0.786099,601.62924,56.912448)">
            <path d="M0,100.455C-0.138,100.67 -1.006,100.762 -1.306,101.222C-2.756,103.452 -3.754,108.365 -7.465,109.381C-9.777,110.013 -33.115,109.647 -34.069,108.788C-33.15,105.495 -30.703,103.13 -29.117,100.481C-24.139,92.163 -19.26,84.131 -14.231,75.931C-10.224,69.397 -2.097,59.1 0.647,52.853C1.364,51.219 1.449,49.386 0.657,47.759C-9.266,31.293 -21.552,14.782 -31.041,-1.767C-32.228,-3.837 -32.79,-6.139 -34.069,-8.167C-32.707,-9.395 -9.108,-9.558 -5.719,-7.424L30.518,49.756C30.773,50.853 27.842,55.738 26.975,57.223C18.723,71.349 8.852,86.594 0,100.455" style="fill:white;fill-rule:nonzero;"/>
        </g>
        <g transform="matrix(0.88727,0,0,0.786099,481.005433,49.968989)">
            <path d="M0,118.364C-2.84,117.909 -4.776,112.563 -5.996,110.793C-16.993,94.834 -27.031,77.58 -37.785,61.149L-38.345,58.699L-4.032,3.567C-0.675,-0.714 -0.39,1.062 3.182,0.712C10.68,-0.021 18.519,-0.929 25.971,0.667C25.075,2.067 24.952,3.864 24.184,5.268C16.38,19.549 5.594,34.4 -2.919,48.731C-4.394,51.215 -9.241,56.61 -9.234,59.145C-5.217,68.242 1.344,76.439 6.671,85.003C12.055,93.657 19.177,103.839 23.897,112.547C24.775,114.165 25.084,116.01 25.975,117.621C25.173,117.393 24.271,118.364 23.972,118.364C17.421,118.364 5.798,119.293 0,118.364" style="fill:white;fill-rule:nonzero;"/>
        </g>
        <g transform="matrix(1,0,0,1,426.2917,200.8889)">
            <path d="M0,6.69L-4.453,3.985C-7.247,2.279 -9.233,0.601 -10.415,-1.049C-11.597,-2.7 -12.188,-4.599 -12.188,-6.748C-12.188,-9.97 -11.07,-12.587 -8.833,-14.599C-6.597,-16.611 -3.691,-17.617 -0.117,-17.617C3.3,-17.617 6.435,-16.658 9.287,-14.738L9.287,-8.087C6.338,-10.924 3.164,-12.343 -0.234,-12.343C-2.149,-12.343 -3.721,-11.901 -4.951,-11.015C-6.182,-10.13 -6.797,-8.997 -6.797,-7.616C-6.797,-6.39 -6.344,-5.242 -5.437,-4.172C-4.531,-3.102 -3.073,-1.979 -1.065,-0.801L3.41,1.846C8.402,4.829 10.898,8.624 10.898,13.233C10.898,16.514 9.8,19.18 7.603,21.231C5.405,23.282 2.549,24.307 -0.967,24.307C-5.01,24.307 -8.691,23.065 -12.012,20.579L-12.012,13.137C-8.848,17.147 -5.186,19.151 -1.025,19.151C0.81,19.151 2.339,18.64 3.56,17.619C4.78,16.596 5.391,15.317 5.391,13.78C5.391,11.289 3.593,8.925 0,6.69" style="fill:white;fill-rule:nonzero;"/>
        </g>
        <g transform="matrix(1,0,0,1,460.0006,220.3914)">
            <path d="M0,-17.871C-2.559,-17.871 -4.658,-17.031 -6.299,-15.351C-7.939,-13.672 -8.76,-11.533 -8.76,-8.935C-8.76,-6.357 -7.92,-4.253 -6.24,-2.622C-4.561,-0.991 -2.402,-0.176 0.234,-0.176C2.852,-0.176 4.995,-1.001 6.665,-2.651C8.335,-4.302 9.17,-6.416 9.17,-8.994C9.17,-11.553 8.301,-13.672 6.562,-15.351C4.824,-17.031 2.637,-17.871 0,-17.871M0.293,-22.676C4.395,-22.676 7.803,-21.352 10.518,-18.706C13.232,-16.059 14.59,-12.734 14.59,-8.73C14.59,-4.844 13.213,-1.616 10.459,0.952C7.705,3.521 4.238,4.805 0.059,4.805C-3.984,4.805 -7.364,3.501 -10.078,0.894C-12.793,-1.714 -14.15,-4.971 -14.15,-8.877C-14.15,-12.822 -12.778,-16.108 -10.034,-18.735C-7.291,-21.362 -3.848,-22.676 0.293,-22.676" style="fill:white;fill-rule:nonzero;"/>
        </g>
        <g transform="matrix(1,0,0,1,485.6237,210.2253)">
            <path d="M0,-12.451L0,-14.062C0,-18.398 0.923,-21.631 2.769,-23.76C4.614,-25.889 6.826,-26.953 9.404,-26.953C10.518,-26.953 11.836,-26.777 13.359,-26.426L13.359,-21.211C12.5,-21.523 11.679,-21.68 10.898,-21.68C8.808,-21.68 7.358,-21.123 6.548,-20.01C5.737,-18.896 5.332,-16.914 5.332,-14.062L5.332,-12.451L10.137,-12.451L10.137,-7.646L5.332,-7.646L5.332,14.502L0,14.502L0,-7.646L-3.867,-7.646L-3.867,-12.451L0,-12.451Z" style="fill:white;fill-rule:nonzero;"/>
        </g>
        <g transform="matrix(1,0,0,1,500.7292,215.3526)">
            <path d="M0,-13.301L10.02,-23.145L10.02,-17.578L18.545,-17.578L18.545,-12.774L10.02,-12.774L10.02,0.418C10.02,3.499 11.298,5.039 13.857,5.039C15.771,5.039 17.793,4.404 19.922,3.135L19.922,8.115C17.871,9.267 15.634,9.844 13.213,9.844C10.771,9.844 8.74,9.131 7.119,7.705C6.611,7.275 6.191,6.792 5.859,6.255C5.527,5.718 5.249,5.014 5.024,4.145C4.8,3.276 4.687,1.621 4.687,-0.821L4.687,-12.774L0,-12.774L0,-13.301Z" style="fill:white;fill-rule:nonzero;"/>
        </g>
        <g transform="matrix(1,0,0,1,562.6759,225.1963)">
            <path d="M0,-27.422L5.718,-27.422L-6.188,0L-7.891,0L-15.86,-18.779L-23.731,0L-25.462,0L-37.466,-27.422L-31.74,-27.422L-24.678,-11.074L-17.794,-27.422L-13.841,-27.422L-7.042,-11.074L0,-27.422Z" style="fill:white;fill-rule:nonzero;"/>
        </g>
        <g transform="matrix(1,0,0,1,588.3332,203.0484)">
            <path d="M0,16.347L0,8.349L-3.574,9.726C-5.391,10.449 -6.676,11.176 -7.427,11.909C-8.179,12.641 -8.555,13.554 -8.555,14.648C-8.555,15.761 -8.199,16.669 -7.485,17.372C-6.772,18.076 -5.85,18.427 -4.717,18.427C-3.018,18.427 -1.446,17.734 0,16.347M5.244,5.478L5.244,16.933C5.244,17.851 5.556,18.31 6.182,18.31C6.826,18.31 7.832,17.831 9.199,16.874L9.199,20.126C7.987,20.908 7.017,21.44 6.284,21.723C5.552,22.006 4.785,22.148 3.984,22.148C1.699,22.148 0.352,21.249 -0.059,19.452C-2.325,21.21 -4.736,22.089 -7.295,22.089C-9.17,22.089 -10.733,21.469 -11.982,20.229C-13.232,18.989 -13.857,17.431 -13.857,15.556C-13.857,13.857 -13.247,12.338 -12.026,11C-10.807,9.662 -9.072,8.603 -6.826,7.822L0,5.478L0,4.042C0,0.8 -1.622,-0.821 -4.863,-0.821C-7.774,-0.821 -10.605,0.683 -13.359,3.691L-13.359,-2.139C-11.29,-4.581 -8.311,-5.801 -4.424,-5.801C-1.514,-5.801 0.82,-5.04 2.578,-3.516C3.164,-3.028 3.691,-2.379 4.16,-1.568C4.629,-0.757 4.926,0.053 5.054,0.864C5.181,1.674 5.244,3.212 5.244,5.478" style="fill:white;fill-rule:nonzero;"/>
        </g>
        <g transform="matrix(1,0,0,1,612.4621,224.2003)">
            <path d="M0,-26.426L0,-20.244L0.293,-20.713C2.871,-24.873 5.449,-26.953 8.027,-26.953C10.038,-26.953 12.139,-25.938 14.326,-23.906L11.514,-19.219C9.657,-20.977 7.939,-21.856 6.357,-21.856C4.639,-21.856 3.149,-21.035 1.89,-19.395C0.63,-17.754 0,-15.811 0,-13.565L0,0.527L-5.361,0.527L-5.361,-26.426L0,-26.426Z" style="fill:white;fill-rule:nonzero;"/>
        </g>
        <g transform="matrix(1,0,0,1,637.9386,213.8582)">
            <path d="M0,-5.332L13.564,-5.332C13.428,-7.461 12.792,-9.102 11.66,-10.254C10.527,-11.406 9.004,-11.982 7.09,-11.982C5.175,-11.982 3.607,-11.406 2.388,-10.254C1.167,-9.102 0.37,-7.461 0,-5.332M18.838,-2.139L-0.117,-2.139C0.019,0.439 0.883,2.49 2.476,4.014C4.067,5.537 6.123,6.299 8.643,6.299C12.158,6.299 15.399,5.205 18.369,3.018L18.369,8.232C16.729,9.326 15.103,10.107 13.491,10.576C11.88,11.045 9.99,11.279 7.822,11.279C4.853,11.279 2.45,10.664 0.615,9.434C-1.221,8.203 -2.691,6.548 -3.794,4.468C-4.897,2.388 -5.449,-0.02 -5.449,-2.754C-5.449,-6.855 -4.288,-10.19 -1.963,-12.759C0.361,-15.327 3.379,-16.611 7.09,-16.611C10.664,-16.611 13.516,-15.361 15.645,-12.861C17.772,-10.361 18.838,-7.012 18.838,-2.812L18.838,-2.139Z" style="fill:white;fill-rule:nonzero;"/>
        </g>
        <g transform="matrix(1,0,0,1,699.9074,203.0484)">
            <path d="M0,16.347L0,8.349L-3.574,9.726C-5.391,10.449 -6.675,11.176 -7.427,11.909C-8.179,12.641 -8.555,13.554 -8.555,14.648C-8.555,15.761 -8.198,16.669 -7.485,17.372C-6.772,18.076 -5.85,18.427 -4.717,18.427C-3.018,18.427 -1.445,17.734 0,16.347M5.244,5.478L5.244,16.933C5.244,17.851 5.557,18.31 6.182,18.31C6.826,18.31 7.832,17.831 9.199,16.874L9.199,20.126C7.988,20.908 7.017,21.44 6.284,21.723C5.552,22.006 4.785,22.148 3.984,22.148C1.699,22.148 0.352,21.249 -0.059,19.452C-2.324,21.21 -4.736,22.089 -7.295,22.089C-9.17,22.089 -10.732,21.469 -11.982,20.229C-13.232,18.989 -13.857,17.431 -13.857,15.556C-13.857,13.857 -13.247,12.338 -12.026,11C-10.806,9.662 -9.072,8.603 -6.826,7.822L0,5.478L0,4.042C0,0.8 -1.621,-0.821 -4.863,-0.821C-7.773,-0.821 -10.605,0.683 -13.359,3.691L-13.359,-2.139C-11.289,-4.581 -8.311,-5.801 -4.424,-5.801C-1.514,-5.801 0.82,-5.04 2.578,-3.516C3.164,-3.028 3.691,-2.379 4.16,-1.568C4.629,-0.757 4.927,0.053 5.054,0.864C5.181,1.674 5.244,3.212 5.244,5.478" style="fill:white;fill-rule:nonzero;"/>
        </g>
        <g transform="matrix(1,0,0,1,21.84,107.368)">
            <rect x="717.771" y="76.432" width="5.332" height="40.928" style="fill:white;"/>
        </g>
        <g transform="matrix(1,0,0,1,768.8371,203.0484)">
            <path d="M0,16.347L0,8.349L-3.574,9.726C-5.391,10.449 -6.675,11.176 -7.427,11.909C-8.179,12.641 -8.555,13.554 -8.555,14.648C-8.555,15.761 -8.198,16.669 -7.485,17.372C-6.772,18.076 -5.85,18.427 -4.717,18.427C-3.018,18.427 -1.445,17.734 0,16.347M5.244,5.478L5.244,16.933C5.244,17.851 5.557,18.31 6.182,18.31C6.826,18.31 7.832,17.831 9.199,16.874L9.199,20.126C7.988,20.908 7.017,21.44 6.284,21.723C5.552,22.006 4.785,22.148 3.984,22.148C1.699,22.148 0.352,21.249 -0.059,19.452C-2.324,21.21 -4.736,22.089 -7.295,22.089C-9.17,22.089 -10.732,21.469 -11.982,20.229C-13.232,18.989 -13.857,17.431 -13.857,15.556C-13.857,13.857 -13.247,12.338 -12.026,11C-10.806,9.662 -9.072,8.603 -6.826,7.822L0,5.478L0,4.042C0,0.8 -1.621,-0.821 -4.863,-0.821C-7.773,-0.821 -10.605,0.683 -13.359,3.691L-13.359,-2.139C-11.289,-4.581 -8.311,-5.801 -4.424,-5.801C-1.514,-5.801 0.82,-5.04 2.578,-3.516C3.164,-3.028 3.691,-2.379 4.16,-1.568C4.629,-0.757 4.927,0.053 5.054,0.864C5.181,1.674 5.244,3.212 5.244,5.478" style="fill:white;fill-rule:nonzero;"/>
        </g>
        <g transform="matrix(1,0,0,1,830.5129,216.7581)">
            <path d="M0,-11.601L0,7.969L-5.361,7.969L-5.361,-7.031C-5.361,-10.019 -5.762,-12.104 -6.562,-13.286C-7.363,-14.467 -8.76,-15.058 -10.752,-15.058C-11.865,-15.058 -12.886,-14.804 -13.813,-14.296C-14.741,-13.789 -15.801,-12.89 -16.992,-11.601L-16.992,7.969L-22.324,7.969L-22.324,-18.984L-16.992,-18.984L-16.992,-15.439C-14.277,-18.154 -11.621,-19.511 -9.023,-19.511C-5.605,-19.511 -2.959,-17.89 -1.084,-14.648C1.768,-17.929 4.746,-19.57 7.852,-19.57C10.469,-19.57 12.622,-18.613 14.312,-16.699C16.001,-14.785 16.846,-11.865 16.846,-7.939L16.846,7.969L11.514,7.969L11.514,-7.997C11.514,-10.244 11.055,-11.962 10.137,-13.154C9.219,-14.345 7.9,-14.941 6.182,-14.941C3.975,-14.941 1.914,-13.828 0,-11.601" style="fill:white;fill-rule:nonzero;"/>
        </g>
        <g transform="matrix(1,0,0,1,863.3136,213.8582)">
            <path d="M0,-5.332L13.564,-5.332C13.428,-7.461 12.793,-9.102 11.66,-10.254C10.527,-11.406 9.004,-11.982 7.09,-11.982C5.176,-11.982 3.608,-11.406 2.388,-10.254C1.167,-9.102 0.371,-7.461 0,-5.332M18.838,-2.139L-0.117,-2.139C0.02,0.439 0.884,2.49 2.476,4.014C4.067,5.537 6.123,6.299 8.643,6.299C12.158,6.299 15.4,5.205 18.369,3.018L18.369,8.232C16.729,9.326 15.103,10.107 13.491,10.576C11.88,11.045 9.99,11.279 7.822,11.279C4.854,11.279 2.451,10.664 0.615,9.434C-1.221,8.203 -2.69,6.548 -3.794,4.468C-4.897,2.388 -5.449,-0.02 -5.449,-2.754C-5.449,-6.855 -4.287,-10.19 -1.963,-12.759C0.361,-15.327 3.379,-16.611 7.09,-16.611C10.664,-16.611 13.516,-15.361 15.645,-12.861C17.773,-10.361 18.838,-7.012 18.838,-2.812L18.838,-2.139Z" style="fill:white;fill-rule:nonzero;"/>
        </g>
        <g transform="matrix(1,0,0,1,910.4113,188.3701)">
            <path d="M0,31.787L0,14.707C-1.66,13.867 -3.34,13.447 -5.039,13.447C-7.695,13.447 -9.81,14.316 -11.382,16.055C-12.954,17.793 -13.74,20.137 -13.74,23.086C-13.74,25.859 -13.057,27.998 -11.689,29.502C-10.869,30.4 -10,31.006 -9.082,31.318C-8.164,31.631 -6.514,31.787 -4.131,31.787L0,31.787ZM0,-4.57L5.361,-4.57L5.361,36.357L-6.035,36.357C-10.02,36.357 -13.198,35.098 -15.571,32.578C-17.944,30.058 -19.131,26.68 -19.131,22.441C-19.131,18.476 -17.886,15.215 -15.396,12.656C-12.905,10.098 -9.727,8.818 -5.859,8.818C-4.062,8.818 -2.109,9.199 0,9.961L0,-4.57Z" style="fill:white;fill-rule:nonzero;"/>
        </g>
        <g transform="matrix(1,0,0,1,21.84,110.003)">
            <path d="M905.786,87.771L911.118,87.771L911.118,114.724L905.786,114.724L905.786,87.771ZM908.423,76.433C909.302,76.433 910.054,76.736 910.679,77.342C911.304,77.947 911.616,78.689 911.616,79.568C911.616,80.428 911.304,81.17 910.679,81.795C910.054,82.42 909.302,82.732 908.423,82.732C907.603,82.732 906.88,82.415 906.255,81.78C905.63,81.145 905.317,80.408 905.317,79.568C905.317,78.748 905.63,78.02 906.255,77.386C906.88,76.751 907.603,76.433 908.423,76.433" style="fill:white;fill-rule:nonzero;"/>
        </g>
        <g transform="matrix(1,0,0,1,963.1515,188.3701)">
            <path d="M0,31.787L0,14.707C-1.66,13.867 -3.34,13.447 -5.039,13.447C-7.695,13.447 -9.81,14.316 -11.382,16.055C-12.954,17.793 -13.74,20.137 -13.74,23.086C-13.74,25.859 -13.057,27.998 -11.689,29.502C-10.869,30.4 -10,31.006 -9.082,31.318C-8.164,31.631 -6.514,31.787 -4.131,31.787L0,31.787ZM0,-4.57L5.361,-4.57L5.361,36.357L-6.035,36.357C-10.02,36.357 -13.198,35.098 -15.571,32.578C-17.944,30.058 -19.131,26.68 -19.131,22.441C-19.131,18.476 -17.886,15.215 -15.396,12.656C-12.905,10.098 -9.727,8.818 -5.859,8.818C-4.062,8.818 -2.109,9.199 0,9.961L0,-4.57Z" style="fill:white;fill-rule:nonzero;"/>
        </g>
        <g transform="matrix(1,0,0,1,991.9386,203.0484)">
            <path d="M0,16.347L0,8.349L-3.574,9.726C-5.391,10.449 -6.675,11.176 -7.427,11.909C-8.179,12.641 -8.555,13.554 -8.555,14.648C-8.555,15.761 -8.198,16.669 -7.485,17.372C-6.772,18.076 -5.85,18.427 -4.717,18.427C-3.018,18.427 -1.445,17.734 0,16.347M5.244,5.478L5.244,16.933C5.244,17.851 5.557,18.31 6.182,18.31C6.826,18.31 7.832,17.831 9.199,16.874L9.199,20.126C7.988,20.908 7.017,21.44 6.284,21.723C5.552,22.006 4.785,22.148 3.984,22.148C1.699,22.148 0.352,21.249 -0.059,19.452C-2.324,21.21 -4.736,22.089 -7.295,22.089C-9.17,22.089 -10.732,21.469 -11.982,20.229C-13.232,18.989 -13.857,17.431 -13.857,15.556C-13.857,13.857 -13.247,12.338 -12.026,11C-10.806,9.662 -9.072,8.603 -6.826,7.822L0,5.478L0,4.042C0,0.8 -1.621,-0.821 -4.863,-0.821C-7.773,-0.821 -10.605,0.683 -13.359,3.691L-13.359,-2.139C-11.289,-4.581 -8.311,-5.801 -4.424,-5.801C-1.514,-5.801 0.82,-5.04 2.578,-3.516C3.164,-3.028 3.691,-2.379 4.16,-1.568C4.629,-0.757 4.927,0.053 5.054,0.864C5.181,1.674 5.244,3.212 5.244,5.478" style="fill:white;fill-rule:nonzero;"/>
        </g>
    </g>
</svg>
