<?xml version="1.0" encoding="UTF-8"?>
<svg id="Capa_1" xmlns="http://www.w3.org/2000/svg" version="1.1" viewBox="0 0 600 100">
  <!-- Generator: Adobe Illustrator 29.1.0, SVG Export Plug-In . SVG Version: 2.1.0 Build 142)  -->
  <defs>
    <style>
      .st0 {
        fill: #e6c292;
      }
    </style>
  </defs>
  <g>
    <g>
      <path class="st0" d="M21,7.3v85.3c0,1.1.9,2.1,2,2.1h75.3c1.1,0,2.1-.9,2.1-2.1V24.8c0-1.1-.9-2-2.1-2h-26.6c-1.1,0-2.1-.9-2.1-2V7.3c0-1.1-.9-2.1-2.1-2.1H23c-1.1,0-2,.9-2,2.1ZM89.2,28.8c1.1,0,2.1.9,2.1,2v54.9c0,1.1-.9,2.1-2.1,2.1h-14.1c-1.1,0-2.1-.9-2.1-2.1V30.8c0-1.1.9-2,2.1-2h14.1ZM66.3,28.8c1.1,0,2.1.9,2.1,2v54.9c0,1.1-.9,2.1-2.1,2.1h-14c-1.1,0-2-.9-2-2.1V30.8c0-1.1.9-2,2-2h14ZM43.5,28.8c1.1,0,2,.9,2,2v54.9c0,1.1-.9,2.1-2,2.1h-14c-1.1,0-2-.9-2-2.1V30.8c0-1.1.9-2,2-2h14Z"/>
      <path class="st0" d="M41.9,55.4v-26.6h11.8v26.6c0,3.3-2.7,5.9-5.9,5.9h0c-3.3,0-5.9-2.6-5.9-5.9h0Z"/>
      <path class="st0" d="M65.4,55.4v-26.6h11.8v26.6c0,3.3-2.7,5.9-5.9,5.9h0c-3.3,0-5.9-2.7-5.9-5.9h0Z"/>
    </g>
    <path class="st0" d="M85.6,10.9c0,1.4,1.3,2.8,2.8,2.8,1.5,0,2.8-1.2,2.8-2.8s-1.3-2.8-2.8-2.8c-1.5,0-2.8,1.2-2.8,2.8Z"/>
  </g>
  <g>
    <path class="st0" d="M118.6,70.7v-37.5h16.2c3.4,0,6.2.5,8.7,1.6s4.3,2.7,5.6,4.7c1.3,2,2,4.5,2,7.3s-.7,5.2-2,7.2c-1.3,2-3.2,3.6-5.6,4.7s-5.3,1.6-8.7,1.6h-11.4l3.8-3.9v14.2h-8.7,0ZM127.3,57.5l-3.8-4.1h10.9c2.7,0,4.7-.6,6-1.7s2-2.7,2-4.8-.7-3.7-2-4.8c-1.3-1.1-3.3-1.7-6-1.7h-10.9l3.8-4.1s0,21.2,0,21.2Z"/>
    <path class="st0" d="M157.2,70.7v-37.5h8.7v37.5h-8.7Z"/>
    <path class="st0" d="M169.9,70.7l16.7-37.5h8.6l16.8,37.5h-9.1l-13.7-33.1h3.4l-13.8,33.1h-8.9,0ZM178.2,62.7l2.3-6.6h19.3l2.4,6.6h-23.9,0Z"/>
    <path class="st0" d="M215.8,70.7v-37.5h7.2l22.1,27h-3.5v-27h8.6v37.5h-7.1l-22.1-27h3.5v27h-8.6Z"/>
    <path class="st0" d="M277.2,71.4c-3,0-5.7-.5-8.2-1.4-2.5-1-4.7-2.3-6.5-4.1s-3.3-3.8-4.3-6.2-1.5-4.9-1.5-7.7.5-5.3,1.5-7.7c1-2.3,2.5-4.4,4.3-6.2,1.9-1.8,4-3.1,6.5-4.1,2.5-1,5.2-1.4,8.1-1.4s5.7.5,8.2,1.4,4.6,2.3,6.5,4.1,3.3,3.8,4.3,6.1c1,2.3,1.5,4.9,1.5,7.7s-.5,5.4-1.5,7.7-2.5,4.4-4.3,6.1c-1.8,1.7-4,3.1-6.5,4s-5.2,1.4-8.1,1.4h0ZM277.1,64c1.7,0,3.2-.3,4.6-.9,1.4-.6,2.6-1.4,3.7-2.5s1.9-2.3,2.5-3.8.9-3.1.9-4.9-.3-3.4-.9-4.9-1.4-2.7-2.5-3.8-2.3-1.9-3.7-2.5-3-.9-4.7-.9-3.2.3-4.6.9-2.6,1.4-3.7,2.5-1.9,2.3-2.5,3.8-.9,3.1-.9,4.9.3,3.4.9,4.8,1.4,2.8,2.5,3.8c1,1.1,2.3,1.9,3.7,2.5s3,.9,4.7.9Z"/>
    <path class="st0" d="M304.2,70.7v-37.5h8.7v37.5h-8.7Z"/>
    <path class="st0" d="M321.7,70.7v-37.5h16.2c3.4,0,6.2.5,8.7,1.6,2.4,1.1,4.3,2.7,5.6,4.7s2,4.5,2,7.3-.7,5.2-2,7.2-3.2,3.6-5.6,4.7-5.3,1.6-8.7,1.6h-11.4l3.9-3.9v14.2h-8.7,0ZM330.4,57.5l-3.9-4.1h10.9c2.7,0,4.7-.6,6-1.7,1.3-1.1,2-2.7,2-4.8s-.7-3.7-2-4.8c-1.3-1.1-3.3-1.7-6-1.7h-10.9l3.9-4.1s0,21.2,0,21.2Z"/>
    <path class="st0" d="M376.8,71.4c-5.3,0-9.5-1.5-12.5-4.4s-4.5-7.2-4.5-12.7v-21h8.7v20.7c0,3.6.7,6.1,2.2,7.7s3.5,2.3,6.1,2.3,4.7-.8,6.1-2.3,2.2-4.1,2.2-7.7v-20.7h8.6v21c0,5.5-1.5,9.7-4.5,12.7s-7.1,4.4-12.5,4.4h0Z"/>
    <path class="st0" d="M413.6,70.7l-16.2-37.5h9.4l14.1,33.2h-5.5l14.3-33.2h8.6l-16.2,37.5h-8.6Z"/>
    <path class="st0" d="M442.8,71.2c-1.4,0-2.6-.5-3.7-1.5-1-1-1.5-2.2-1.5-3.8s.5-2.8,1.5-3.7c1-.9,2.2-1.4,3.7-1.4s2.7.5,3.7,1.4c1,1,1.5,2.2,1.5,3.7s-.5,2.8-1.5,3.8c-1,1-2.2,1.5-3.7,1.5Z"/>
    <path class="st0" d="M471.1,71.4c-2.9,0-5.6-.5-8-1.4-2.5-.9-4.6-2.3-6.5-4s-3.2-3.8-4.2-6.2-1.5-4.9-1.5-7.8.5-5.4,1.5-7.8,2.4-4.4,4.3-6.2c1.8-1.8,4-3.1,6.5-4s5.1-1.4,8.1-1.4,6.2.6,8.8,1.7,4.8,2.8,6.6,5l-5.6,5.1c-1.3-1.5-2.7-2.6-4.3-3.3s-3.3-1.1-5.1-1.1-3.4.3-4.8.9c-1.5.6-2.7,1.4-3.8,2.5s-1.9,2.3-2.5,3.8-.9,3.1-.9,4.9.3,3.4.9,4.9,1.4,2.7,2.5,3.8,2.3,1.9,3.8,2.5,3.1.9,4.8.9,3.6-.4,5.1-1.1,3-1.8,4.3-3.3l5.6,5.1c-1.8,2.2-4,3.8-6.6,5-2.6,1.1-5.6,1.7-8.9,1.7h0Z"/>
    <path class="st0" d="M509.8,71.4c-3,0-5.7-.5-8.2-1.4-2.5-1-4.7-2.3-6.5-4.1s-3.3-3.8-4.3-6.2-1.5-4.9-1.5-7.7.5-5.3,1.5-7.7c1-2.3,2.5-4.4,4.3-6.2,1.9-1.8,4-3.1,6.5-4.1,2.5-1,5.2-1.4,8.1-1.4s5.7.5,8.2,1.4,4.6,2.3,6.5,4.1c1.8,1.8,3.3,3.8,4.3,6.1,1,2.3,1.5,4.9,1.5,7.7s-.5,5.4-1.5,7.7c-1,2.4-2.5,4.4-4.3,6.1-1.8,1.7-4,3.1-6.5,4s-5.2,1.4-8.1,1.4h0ZM509.8,64c1.7,0,3.2-.3,4.6-.9,1.4-.6,2.7-1.4,3.7-2.5s1.9-2.3,2.5-3.8c.6-1.5.9-3.1.9-4.9s-.3-3.4-.9-4.9-1.4-2.7-2.5-3.8c-1-1.1-2.3-1.9-3.7-2.5s-3-.9-4.7-.9-3.2.3-4.6.9-2.6,1.4-3.7,2.5-1.9,2.3-2.5,3.8-.9,3.1-.9,4.9.3,3.4.9,4.8,1.4,2.8,2.5,3.8c1,1.1,2.3,1.9,3.7,2.5s3,.9,4.7.9h0Z"/>
    <path class="st0" d="M536.8,70.7v-37.5h7.2l16,26.4h-3.8l15.7-26.4h7.1v37.5c.1,0-8,0-8,0v-25s1.5,0,1.5,0l-12.5,21h-3.9l-12.8-21h1.8v25h-8.2Z"/>
  </g>
</svg>